<?xml version="1.0" encoding="UTF-8" standalone="no"?><svg width="386" height="414" viewBox="0 0 386 414" fill="none" xmlns="http://www.w3.org/2000/svg">
<mask id="mask0_1_8816" style="mask-type:alpha" maskUnits="userSpaceOnUse" x="1" y="1" width="384" height="412">
<rect x="1" y="1" width="384" height="411.569" fill="#D9D9D9"/>
</mask>
<g mask="url(#mask0_1_8816)">
<path d="M275.892 176.985C276.691 179.968 277.749 184.283 278.299 187.899C278.423 188.727 278.57 189.646 278.718 190.566C279.151 193.007 279.562 195.553 279.805 197.653L280.116 200.471C280.506 204.129 280.746 207.139 280.857 209.667C280.93 210.951 280.955 212.149 280.967 213.204L280.96 215.567C280.99 218.436 281.017 221.478 280.901 223.895C280.705 228.128 280.236 233.64 279.731 237.637C279.327 241.827 278.418 247.26 277.409 251.121C276.958 252.84 276.497 254.612 276.019 256.412C275.555 258.356 275.078 260.255 274.623 262.049C273.605 266.06 271.806 271.387 270.122 275.306L269.716 275.538L269.989 275.637C267.844 280.958 264.531 287.896 259.825 296.805L259.434 296.91L259.696 297.061L259.517 297.404L259.15 297.503L259.406 297.631L259.204 297.98C259.204 297.98 258.798 298.581 258.697 298.755C258.449 299.117 258.212 299.426 257.969 299.713L257.765 299.964C256.983 300.813 256.256 301.5 255.435 302.113C242.359 311.864 207.629 306.61 162.486 288.137L161.934 287.916C89.7234 258.225 12.6556 203.423 -10.2881 165.499L-10.5489 165.077L-10.8696 164.524L-10.8819 164.478C-11.6661 163.114 -12.4272 161.744 -13.0842 160.395L-13.3298 159.846C-13.9269 158.629 -14.4427 157.439 -14.8773 156.277L-14.9757 155.909C-15.4148 154.822 -15.7559 153.733 -16.0387 152.678L-16.1801 152.15C-16.4584 151.019 -16.6555 149.916 -16.7713 148.841L-16.7991 148.553C-16.8965 147.546 -16.9356 146.573 -16.8874 145.65L-16.8602 145.2C-16.8042 144.398 -16.6792 143.577 -16.4669 142.807C-16.3921 142.443 -16.3539 142.31 -16.3219 142.154C-16.1309 141.488 -15.8587 140.849 -15.5804 140.233L-15.458 139.955C-15.38 139.786 -15.325 139.624 -15.2408 139.478L-15.1353 139.229C-11.9619 133.976 -8.28642 128.023 -5.01397 123.876L-4.20581 122.848C-2.85747 120.986 -1.57484 119.339 -0.414547 117.971C-0.0410549 117.526 0.372244 117.047 0.762571 116.573C3.04787 113.796 4.96292 111.66 7.83337 108.678C8.66159 107.816 9.48981 106.955 10.3242 106.117L11.6408 104.78L12.3849 104.064C15.5126 100.939 19.2485 97.6015 22.3079 95.2324C26.1849 92.0539 32.6928 87.113 41.6228 81.7444C42.171 81.4008 42.7025 81.0862 43.2339 80.7716C43.8051 80.4218 44.4285 80.0826 45.0686 79.7143C48.0873 78.0201 51.3082 76.3456 54.6686 74.7319L55.4987 74.3373C56.2829 73.955 56.9017 73.6909 57.5374 73.3976C62.961 70.936 66.6832 69.5698 66.7292 69.5574C70.007 68.1873 74.7357 66.6251 80.7606 64.9369L81.45 64.7522C85.9875 63.4872 89.3378 62.6632 92.002 62.2199C99.7998 60.6224 107.82 59.58 115.297 59.1751L117.436 59.0693C118.728 59.0183 119.905 58.9982 120.931 58.969C121.739 58.9494 122.552 58.9527 123.389 58.9499C125.114 58.9549 126.689 58.9509 127.924 58.9643C131.208 58.9944 134.777 59.1694 137.262 59.438C137.99 59.4889 138.597 59.5476 139.181 59.6126C141.227 59.8022 143.262 60.0439 145.274 60.2918L146.06 60.3762C146.696 60.4517 147.794 60.6001 149.033 60.8093L150.884 61.1003C153.488 61.5339 155.774 61.9788 157.662 62.4074L158.769 62.6766C161.647 63.3072 163.837 63.8517 166.816 64.6765C167.639 64.8987 168.387 65.1164 169.054 65.3067C169.616 65.4757 170.202 65.6385 170.793 65.8243L170.984 66.1668L171.06 65.9004C172.556 66.3357 175.497 67.2938 178.852 68.5098L180.687 69.1987C181.755 69.601 182.8 70.0096 183.852 70.441L184.235 70.5843C185.426 71.0767 186.432 71.5205 187.408 71.9475L187.966 72.1915C188.994 72.6291 189.954 73.0853 190.884 73.5246L191.763 73.9532C194.13 75.0652 196.009 76.0126 197.103 76.6047C199.682 77.9551 202.204 79.3698 204.61 80.8154L206.202 81.7908C210.516 84.4714 213.581 86.626 214.707 87.4308L215.589 88.0553C217.668 89.5641 219.614 91.0348 221.526 92.5638C223.367 94.0132 225.281 95.6401 227.254 97.3985L227.325 97.8468L227.512 97.6246C229.215 99.111 231.957 101.623 235.385 105.131L236.271 106.049C236.782 106.577 237.305 107.15 237.851 107.717C240.124 110.133 242.282 112.579 244.26 115L244.949 115.824L245.944 117.058C247.9 119.485 249.853 122.085 251.183 124.016C251.585 124.597 252.028 125.24 252.484 125.93C252.969 126.636 253.441 127.297 253.849 127.9C254.062 128.237 254.69 129.2 254.69 129.2C255.282 130.123 255.791 130.921 256.307 131.742C256.727 132.392 257.125 133.048 257.522 133.704L258.578 135.438L258.685 135.655C259.54 137.098 260.313 138.514 261.058 139.913C262.634 142.762 264.896 146.976 266.373 150.466L267.165 152.32C267.566 153.171 267.943 154.029 268.309 154.841C270.306 159.446 272.677 166.091 274.225 171.406C274.471 172.324 274.769 173.252 275.033 174.239L274.831 174.588L275.107 174.515C275.267 175.111 275.494 175.96 275.765 176.97L275.892 176.985ZM279.483 206.469C279.343 204.662 279.177 202.665 278.958 200.56L278.734 198.53C278.463 196.413 278.095 194.028 277.716 191.695C277.716 191.695 276.93 187.11 276.752 186.075C276.379 183.765 275.725 180.866 274.754 177.241C274.508 176.323 274.256 175.382 274.016 174.487C273.495 172.635 272.676 169.854 271.783 167.166C271.894 167.579 272.534 170.334 272.534 170.334C272.669 170.839 272.804 171.344 272.894 171.861C273.263 173.607 273.592 175.388 273.893 177.152L274.177 178.674C274.338 179.639 274.458 180.64 274.578 181.641C274.578 181.641 274.901 184.038 274.93 184.424C275.074 185.787 275.194 187.157 275.315 188.526C275.315 188.526 275.459 190.258 275.492 190.84C275.492 190.84 275.597 192.336 275.62 192.699C275.631 193.016 275.671 194.358 275.671 194.358L275.683 194.773C275.709 195.602 275.728 196.409 275.753 197.238C275.753 197.238 275.795 198.407 275.788 198.655C277.396 201.347 278.645 203.988 279.528 206.457L279.483 206.469ZM274.33 191.102C274.208 189.266 274.068 187.458 273.877 185.641C273.781 184.732 273.656 183.806 273.554 182.874C273.363 181.425 273.178 179.999 272.941 178.563C272.73 177.316 272.525 176.092 272.291 174.851C272.077 173.777 271.857 172.68 271.62 171.612C271.308 170.171 270.973 168.736 270.615 167.307L269.907 164.669C269.456 163.166 269.027 161.658 268.552 160.162C268.254 159.234 267.916 158.341 267.595 157.418L267.068 155.912C266.791 155.15 266.536 154.382 266.235 153.627C265.319 151.314 264.43 149.191 263.497 147.179C263.317 146.784 263.144 146.413 262.941 146.024L262.572 145.287C261.278 142.756 260.021 140.363 258.979 138.404C259.493 141.243 259.006 143.562 257.46 145.329L257.414 145.341C263.844 157.021 268.85 169.453 272.28 182.256L272.36 182.555C273.074 185.216 273.732 188.04 274.353 191.096L274.33 191.102ZM277.734 220.809C279.891 217.919 280.333 213.964 279.017 209.053C278.427 206.851 277.471 204.475 276.2 201.938C277.089 208.291 277.603 214.622 277.728 220.786L277.734 220.809ZM274.105 195.958C273.304 191.5 272.32 187.091 271.211 182.863L271.407 182.49L271.132 182.564C267.75 169.944 262.839 157.684 256.528 146.169C254.006 148.246 249.762 149.137 243.918 148.834C243.805 151.447 243.594 154.061 243.29 156.602L243.456 157.221C243.594 157.553 243.687 157.898 243.785 158.265C244.338 160.33 244.846 162.407 245.33 164.491C258.181 175.779 268.106 186.621 274.128 195.952L274.105 195.958ZM272.074 224.686C272.526 222.327 272.947 219.853 273.312 217.173L273.42 216.382C273.734 214.06 273.971 211.635 274.166 209.148L274.242 208.144C274.399 205.79 274.522 203.396 274.546 201.004L274.546 199.996C274.537 199.777 274.515 198.775 274.515 198.775C268.989 189.459 259.012 178.237 245.725 166.426C247.154 172.954 248.263 179.666 248.997 186.356C250.454 199.516 250.538 212.971 249.322 226.356C259.203 227.569 266.897 227.057 272.163 224.834L272.188 224.926L272.319 224.866L272.068 224.663L272.074 224.686ZM269.284 274.202C270.962 269.892 272.742 264.127 274.871 256.08C276.755 248.222 277.959 242.145 278.534 237.49C279.07 231.862 279.462 225.51 279.639 219.831C279.226 220.679 278.72 221.454 278.12 222.156C278.046 222.25 277.921 222.333 277.824 222.432C277.762 222.474 277.705 222.538 277.648 222.602C277.895 240.342 275.049 257.754 269.206 274.371L269.261 274.209L269.284 274.202ZM256.779 144.257C258.032 142.593 258.289 140.335 257.539 137.536C257.097 135.884 256.304 134.03 255.158 132.05L255.25 131.657L255.022 131.816L254.524 131.064L253.791 129.982C253.578 129.645 252.279 127.829 252.279 127.829C251.847 127.232 251.433 126.605 251.002 126.007C247.649 121.766 243.229 117.22 237.842 112.465C238.974 114.941 239.983 117.696 240.923 120.838C246.759 128.005 252.129 135.911 256.779 144.257ZM273.298 224.383C274.58 223.744 275.669 222.936 276.685 221.95C276.56 216.795 276.194 211.384 275.544 205.926C275.526 206.226 275.508 206.526 275.496 206.849L275.399 208.326C275.36 208.73 275.24 210.213 275.24 210.213C275.134 211.471 275.027 212.729 274.892 213.971C274.805 214.658 274.725 215.368 274.638 216.055L274.556 216.668C274.361 218.146 274.16 219.602 273.913 221.07L273.721 222.376C273.631 222.867 273.567 223.179 273.503 223.492L273.333 224.423L273.298 224.383ZM243.957 147.693C249.553 147.989 253.698 147.099 255.951 145.118C251.818 137.692 247.06 130.506 241.785 123.779C243.553 130.93 244.28 138.974 243.957 147.693ZM261.009 290.93C271.389 269.925 276.624 247.273 276.573 223.554C275.543 224.396 274.361 225.131 273.043 225.73C272.937 226.25 272.544 228.003 272.544 228.003L272.38 228.859C272.305 229.223 272.253 229.582 272.149 229.929C272.062 230.248 271.981 230.589 271.894 230.907L271.682 231.677C271.439 232.702 271.173 233.732 270.901 234.739L270.636 235.77C270.5 236.274 270.387 236.771 270.251 237.275C270.164 237.593 269.73 238.915 269.73 238.915C269.516 239.587 269.308 240.282 269.094 240.954L268.562 242.646C268.365 243.289 268.168 243.932 267.942 244.558C267.859 244.802 267.428 245.95 267.428 245.95C267.246 246.466 267.041 246.988 266.859 247.504L266.13 249.47C265.843 250.236 265.561 251.025 265.274 251.79L264.818 252.847C264.596 253.398 264.369 253.927 264.124 254.484L263.246 256.539C262.896 257.346 262.569 258.147 262.196 258.96L261.867 259.663C261.487 260.453 261.108 261.244 260.706 262.04L259.741 264.045C259.429 264.719 259.094 265.399 258.752 266.056L258.55 266.405C257.605 268.208 256.614 270.023 255.57 271.827C255.57 271.827 255.088 272.694 255.01 272.863C255.782 274.18 256.45 275.477 257.082 276.734L257.404 277.386C258.623 279.912 259.54 282.322 260.136 284.548C260.745 286.82 261.029 288.982 261.009 290.93ZM270.306 232.612C270.794 230.661 271.262 228.642 271.748 226.225C266.322 228.22 258.73 228.655 249.208 227.493C248.22 237.595 246.442 247.687 243.915 257.464C244.28 257.908 246.547 260.669 246.835 261.01L246.988 261.215C247.36 261.681 247.702 262.131 248.05 262.603C248.05 262.603 249.489 264.48 249.725 264.81L249.878 265.015C250.226 265.487 250.523 265.949 250.842 266.405C250.842 266.405 252.16 268.29 252.325 268.54L252.456 268.751C252.746 269.19 253.006 269.612 253.267 270.034C253.267 270.034 254.238 271.545 254.34 271.739C255.529 269.649 256.705 267.514 257.8 265.352L258.795 263.364C259.772 261.405 260.704 259.458 261.583 257.501L262.328 255.777C263.245 253.687 264.111 251.585 264.918 249.451L265.366 248.273C266.3 245.785 267.11 243.478 267.818 241.247L268.081 240.389C268.903 237.759 269.607 235.332 270.203 232.959L270.55 232.694L270.261 232.624L270.306 232.612ZM233.54 104.863C233.865 105.342 234.19 105.82 234.492 106.305C235.072 106.813 235.529 107.232 235.992 107.674C235.992 107.674 237.591 109.139 237.756 109.292C237.444 108.957 236.552 108.016 236.552 108.016L234.432 105.804C234.127 105.493 233.822 105.181 233.523 104.892L233.54 104.863ZM236.518 109.82C236.869 110.119 237.249 110.436 237.6 110.735C237.6 110.735 236.709 109.892 236.417 109.626C236.435 109.695 236.47 109.734 236.512 109.797L236.518 109.82ZM242.808 147.632C243.143 138.59 242.284 130.237 240.286 122.779C240.157 122.298 240.034 121.839 239.911 121.38C229.999 109.206 218.251 98.3598 205.02 89.2394C220.547 104.631 232.806 124.735 240.478 147.395C241.294 147.496 242.057 147.587 242.83 147.625L242.808 147.632ZM214.102 94.4546C223.233 101.599 231.576 109.668 238.992 118.502C238.235 116.32 237.41 114.254 236.502 112.333C236.221 111.744 235.917 111.161 235.619 110.602C229.345 105.2 222.013 99.7129 214.102 94.4546ZM212.965 92.3246C220.577 97.2941 227.714 102.514 233.943 107.657C233.813 107.446 233.683 107.235 233.558 107.047L232.95 106.521C232.534 106.165 232.096 105.816 231.68 105.46L230.387 104.404C229.779 103.879 229.153 103.382 228.528 102.886L227.563 102.136C227.189 101.843 225.378 100.508 225.378 100.508C224.794 100.074 224.21 99.6406 223.626 99.2069L222.686 98.5488C222.202 98.2113 221.723 97.8968 221.239 97.5593L219.775 96.599C219.086 96.144 218.421 95.6829 217.71 95.2341L217.056 94.8188C216.555 94.5104 216.054 94.2021 215.53 93.8999C215.53 93.8999 213.391 92.6284 212.948 92.3536L212.965 92.3246ZM206.131 87.3186C206.533 87.5307 206.789 87.6588 207.016 87.7702L207.621 88.0999C208.477 88.5347 209.338 88.9924 210.2 89.4502L211.026 89.8683C211.398 90.0636 211.794 90.2527 212.15 90.4771L212.441 90.645C212.842 90.8571 213.227 91.0983 213.612 91.3395L216.537 93.0643C217.003 93.3329 217.475 93.6245 217.941 93.8931L218.18 94.0503C218.804 94.4488 219.224 94.7298 219.645 95.0107L221.774 96.4322C222.346 96.82 222.935 97.1787 223.483 97.5727L224.009 97.9728C224.436 98.2767 224.868 98.6035 225.3 98.9304L226.872 100.108C227.514 100.575 228.157 101.042 228.776 101.516L229.437 102.052C229.905 102.419 230.349 102.791 230.794 103.164L230.952 103.294C224.655 95.1438 216.128 89.6078 205.523 86.7931L205.457 87.0074L206.108 87.3247L206.131 87.3186ZM242.445 153.631C242.597 151.992 242.703 150.365 242.792 148.767C242.162 148.715 241.532 148.662 240.873 148.593C241.42 150.266 241.944 151.946 242.445 153.631ZM241.526 161.231C241.754 159.694 241.96 158.163 242.142 156.639C241.432 154.173 240.574 151.427 239.572 148.425C233.315 147.593 225.956 145.679 217.685 142.755C226.303 148.906 234.299 155.125 241.532 161.254L241.526 161.231ZM243.803 163.203C243.512 162.027 243.222 160.85 242.902 159.657C242.824 160.194 242.515 162.073 242.515 162.073L243.797 163.18L243.803 163.203ZM248.171 226.197C249.388 212.91 249.284 199.559 247.845 186.468C247.057 179.301 245.83 172.055 244.207 164.988L242.634 163.713L242.283 163.414C239.278 181.336 232.554 200.451 222.263 220.227C231.919 223.174 240.63 225.168 248.148 226.203L248.171 226.197ZM209.688 137.175C211.165 138.182 212.618 139.194 214.072 140.206C223.449 143.768 232.133 146.213 239.148 147.21C231.546 124.998 219.561 105.362 204.467 90.2977C204.213 91.0051 203.949 91.7646 203.644 92.5593C203.925 93.1481 204.131 93.7324 204.343 94.3396C204.598 95.1075 204.859 95.8983 205.12 96.6891C205.309 97.3025 205.498 97.9158 205.67 98.5583C205.67 98.5583 205.945 99.4929 206.007 99.7224C206.093 100.044 206.713 102.632 206.713 102.632C207.005 103.906 207.274 105.187 207.527 106.497L207.662 107.001C207.917 108.507 208.162 110.064 208.384 111.628L208.549 112.887C208.696 114.078 208.842 115.268 208.972 116.488L209.119 118.047C209.232 119.295 209.322 120.55 209.412 121.805L209.497 123.135C209.589 124.856 209.664 126.607 209.699 128.393L209.707 128.882C209.746 130.495 209.738 132.121 209.713 133.775L209.659 137.159L209.688 137.175ZM221.167 219.906C231.599 199.92 238.372 180.619 241.294 162.572C232.966 155.482 223.627 148.295 213.476 141.202C212.216 140.728 210.921 140.214 209.568 139.667L209.496 141.236C209.417 142.782 209.316 144.334 209.221 145.908L209.147 147.01C209.006 148.966 208.819 150.935 208.615 152.932L208.46 154.376C208.307 155.917 208.101 157.448 207.908 159.024L207.635 161.04C207.44 162.519 207.223 164.004 207.005 165.488L206.701 167.39C206.378 169.493 206.009 171.608 205.623 173.753C205.178 176.135 204.71 178.523 204.218 180.917C204.058 181.698 203.881 182.508 203.698 183.295L203.167 185.724C202.99 186.534 202.813 187.344 202.629 188.131C202.365 189.259 202.101 190.387 201.808 191.499C201.808 191.499 201.014 194.786 200.85 195.371C200.449 196.905 200.03 198.468 199.606 200.008L198.904 202.631C198.512 204.015 198.113 205.376 197.697 206.766L196.768 209.917L196.451 210.937C204.915 214.399 213.227 217.386 221.149 219.837L221.167 219.906ZM205.81 85.6587C209.043 86.5137 212.132 87.6536 215.034 89.0158C215.034 89.0158 214.998 88.976 214.969 88.9592C212.16 86.9328 209.278 84.9998 206.112 83.0198C206.124 83.7054 206.034 84.5656 205.804 85.6357L205.81 85.6587ZM243.014 256.402C245.403 246.933 247.117 237.153 248.057 227.334C240.395 226.313 231.527 224.287 221.738 221.302C219.898 224.821 218.256 227.794 216.624 230.617L219.182 232.809C220.019 233.543 220.698 234.148 221.377 234.753L223.866 236.964C224.651 237.688 225.272 238.26 225.9 238.854L228.325 241.106C229.058 241.82 230.788 243.496 230.788 243.496C230.788 243.496 232.184 244.843 232.553 245.211C233.234 245.914 236.521 249.264 236.521 249.264C237.172 249.95 237.654 250.46 238.113 250.977L240.392 253.416C240.815 253.893 241.244 254.392 241.668 254.869L243.049 256.442L243.014 256.402ZM224.739 304.928C233.596 305.998 240.951 305.871 246.642 304.592L247.124 304.463C248.01 304.275 248.802 304.014 249.594 303.752L250.265 303.499C250.58 303.389 250.873 303.287 251.159 303.161C251.577 302.975 251.933 302.83 252.259 302.669C252.522 302.549 252.728 302.396 252.962 302.259L253.642 301.856C253.876 301.719 254.134 301.577 254.339 301.423C254.527 301.299 254.715 301.175 254.898 301.028C255.45 300.609 255.916 300.14 256.404 299.665C257.465 297.831 258.483 295.935 259.49 293.993C260.066 291.453 259.953 288.458 259.119 285.165L259.297 284.724L259.021 284.798C258.751 283.788 258.393 282.728 258.006 281.651L257.83 281.182C257.42 280.111 256.935 279.036 256.415 277.921L256.11 277.241C255.423 275.875 254.691 274.522 253.92 273.204C251.296 268.742 247.835 263.915 243.603 258.876C239.285 275.207 232.952 290.725 224.774 304.968L224.739 304.928ZM204.755 85.4001C205.039 84.0698 205.133 83.1346 204.986 82.5839C204.937 82.4003 204.883 82.2917 204.789 82.2184C204.789 82.2184 204.066 81.7237 200.939 84.5781C202.207 84.8042 203.509 85.07 204.778 85.394L204.755 85.4001ZM199.742 84.0627C201.197 82.6892 202.388 81.8043 203.304 81.3622C202.634 80.976 201.702 80.4388 200.071 79.4986C199.582 79.2362 198.999 78.9004 198.429 78.6105L196.758 77.7056C195.21 76.8908 193.645 76.105 192.005 75.3148C192.098 75.3881 192.784 76.0161 192.784 76.0161L193.299 76.4683C193.679 76.7845 194.059 77.1007 194.429 77.4689C194.769 77.8204 195.093 78.2009 195.44 78.5754L195.933 79.1316L196.421 79.6649C196.768 80.0393 197.108 80.3908 197.415 80.8005C197.745 81.204 198.035 81.6427 198.354 82.0983L199.187 83.277C199.382 83.5445 199.576 83.8119 199.771 84.0795L199.742 84.0627ZM204.468 86.5346C204.468 86.5346 204.468 86.5346 204.445 86.5407C204.445 86.5407 204.445 86.5407 204.468 86.5346ZM203.57 89.4314C202.936 88.8141 202.28 88.203 201.624 87.5919C201.803 87.9864 201.977 88.3581 202.15 88.7297C202.342 89.1701 202.54 89.6335 202.738 90.0969C202.738 90.0969 203.062 90.8462 203.068 90.8692C203.256 90.3761 203.421 89.8892 203.57 89.4314ZM208.537 135.91C208.561 135.264 208.584 134.618 208.585 133.979C208.583 133.143 208.587 132.33 208.568 131.524L208.567 129.68C208.569 129.138 208.572 128.596 208.551 128.061C208.532 127.254 208.49 126.454 208.448 125.654L208.378 123.828C208.364 123.315 208.332 122.832 208.324 122.342C208.288 121.565 208.213 120.823 208.137 120.081L207.999 118.371C207.962 117.865 207.919 117.335 207.882 116.829C207.807 116.185 207.739 115.564 207.665 114.919L207.453 113.206C207.38 112.66 207.324 112.084 207.252 111.538C207.173 110.969 207.078 110.429 206.982 109.889L206.707 108.216C206.622 107.624 206.52 107.061 206.419 106.498C206.336 106.004 206.206 105.522 206.1 105.034L205.751 103.455C205.62 102.876 205.513 102.29 205.365 101.739L204.529 98.6183C204.4 98.1364 204.277 97.6774 204.131 97.2247C204.02 96.8117 203.87 96.4339 203.742 96.05C203.742 96.05 203.166 94.3598 203.076 94.1135C200.262 101.262 195.558 111.278 189.113 123.899C195.734 127.929 202.277 132.128 208.561 136.371L208.583 135.898L208.537 135.91ZM188.093 123.312C194.745 110.266 199.738 99.5822 202.493 92.4005C202.371 92.3104 202.268 92.0182 202.136 91.7093L201.649 90.5363C201.439 90.027 201.222 89.4947 201.012 88.9854C200.82 88.545 200.611 88.1337 200.403 87.7223C200.403 87.7223 199.644 86.1794 199.537 85.9622C194.19 91.6497 186.082 102.11 176.05 116.234C180.116 118.539 184.176 120.918 188.116 123.306L188.093 123.312ZM175.014 115.676C185.073 101.47 192.944 91.3195 198.392 85.4574C181.942 84.0857 162.54 88.4238 142.209 98.0277C142.94 98.6433 143.672 99.2589 144.426 99.8684C154.457 104.583 164.769 109.887 174.985 115.659L175.014 115.676ZM177.156 69.899C184.001 73.2047 190.635 77.2804 196.9 82.0944C196.699 81.804 196.475 81.5197 196.257 81.2583C195.857 80.7754 195.462 80.3153 195.045 79.8615L194.317 79.0729C194.005 78.7382 193.717 78.3974 193.389 78.0918C192.984 77.6838 192.539 77.3112 192.124 76.9553L191.287 76.2204C190.965 75.9378 190.666 75.649 190.333 75.4185C189.871 75.0748 189.422 74.7771 188.95 74.4856L188.023 73.8733C187.696 73.6657 187.386 73.429 187.043 73.2505C186.548 72.9651 186.013 72.7149 185.484 72.4877L184.583 72.0652C184.327 71.937 184.1 71.8257 183.85 71.7205L183.467 71.5772C182.753 71.3013 182.167 71.1384 181.605 70.9694L180.717 70.6908C180.421 70.5979 180.119 70.482 179.807 70.4183C179.013 70.2129 178.169 70.0948 177.324 69.9767C177.249 69.9723 177.168 69.9448 177.116 69.9342L177.156 69.899ZM223.49 304.771C231.871 290.277 238.298 274.463 242.638 257.757C231.424 244.58 215.03 229.814 195.202 215.009L194.495 217.24C193.995 218.776 193.449 220.324 192.926 221.866L192.035 224.515C191.456 226.121 190.883 227.75 190.28 229.363L189.397 231.764C188.784 233.428 188.142 235.076 187.493 236.701L186.619 238.952C185.987 240.547 185.327 242.126 184.672 243.728L183.691 246.13C183.03 247.709 182.323 249.3 181.634 250.862L180.594 253.232C179.904 254.794 179.185 256.339 178.466 257.884L177.358 260.272C176.633 261.794 175.908 263.316 175.153 264.822L173.976 267.228C173.255 268.675 172.506 270.106 171.785 271.553L170.477 274.117C169.66 275.664 168.82 277.217 167.997 278.741L166.85 280.893C166.155 282.161 165.432 283.412 164.714 284.687C164.714 284.687 163.475 286.863 163.296 287.206C164.289 287.604 165.253 287.985 166.217 288.367L168.808 289.394C169.661 289.731 170.515 290.068 171.34 290.388L171.752 290.548C172.739 290.923 173.72 291.275 174.678 291.633L180.738 293.846C181.557 294.143 182.363 294.394 183.175 294.668L186.535 295.809C188.101 296.324 189.662 296.816 191.193 297.291L193.907 298.138C204.809 301.414 214.764 303.641 223.496 304.794L223.49 304.771ZM141.249 97.2028C160.731 87.9246 179.496 83.413 195.646 84.1272C194.77 83.7964 193.876 83.4949 192.983 83.1932C192.577 83.0561 190.889 82.5491 190.889 82.5491C189.433 82.0785 187.96 81.637 186.493 81.2184C185.85 81.022 185.189 80.8547 184.529 80.6873L183.972 80.5413C182.622 80.1898 181.249 79.8446 179.882 79.5223C178.99 79.3186 178.098 79.1149 177.212 78.9342C175.857 78.6577 174.503 78.3813 173.154 78.1279C172.245 77.9533 171.343 77.8016 170.44 77.6499C169.046 77.4088 167.64 77.2197 166.235 77.0306C166.235 77.0306 164.24 76.7536 163.627 76.6719C162.072 76.4739 160.505 76.3278 158.939 76.1817L158.13 76.1035C157.674 76.0537 157.246 76.0207 156.789 75.9709C154.525 75.7908 152.278 75.6794 149.992 75.6034L149.85 75.7153L149.632 75.8228C148.597 76.3708 147.522 76.954 146.476 77.554L145.561 78.0941C144.327 78.8183 143.105 79.5885 141.872 80.4106L141.25 80.8477C140.166 81.5809 139.088 82.3371 137.993 83.1223L137.064 83.7895C135.81 84.7158 134.545 85.6941 133.286 86.6954L131.556 88.1427C134.35 91.0338 137.609 94.0957 141.226 97.209L141.249 97.2028ZM208.492 137.766C202.05 133.394 195.355 129.088 188.553 124.935L187.06 127.819C194.324 131.676 201.518 135.085 208.495 137.962L208.492 137.766ZM195.668 209.671C195.92 208.865 196.149 208.066 196.379 207.267L197.072 204.892C197.318 204.064 197.564 203.236 197.787 202.414C198.027 201.562 198.25 200.74 198.467 199.895L199.125 197.481C199.338 196.711 199.55 195.94 199.739 195.177C199.929 194.413 200.112 193.626 200.301 192.862L200.874 190.495C201.091 189.65 201.301 188.782 201.495 187.943C201.7 187.052 201.898 186.138 202.103 185.247L202.602 182.974C202.775 182.239 202.941 181.481 203.09 180.752C203.582 178.358 204.05 175.97 204.496 173.588C205.37 168.853 206.089 164.184 206.678 159.674L206.765 158.986C207.037 156.97 207.264 154.967 207.468 152.969L207.591 151.682C207.758 149.916 207.931 148.172 208.058 146.441C208.092 146.014 208.246 143.464 208.246 143.464C208.314 142.34 208.405 141.208 208.45 140.09L208.475 139.173C201.358 136.235 193.973 132.754 186.54 128.819C177.809 145.594 166.805 165.463 154.708 186.314L156.206 187.216C157.296 187.883 160.135 189.655 160.135 189.655L162.619 191.203C163.569 191.809 166.485 193.684 166.485 193.684L168.952 195.261C169.932 195.884 175.147 199.356 175.147 199.356C176.052 199.974 181.205 203.488 181.205 203.488C182.109 204.106 184.689 205.923 184.689 205.923C188.305 207.561 191.92 209.101 195.434 210.545L195.714 209.658L195.668 209.671ZM152.34 74.5316C156.232 74.7184 160.19 75.0597 164.162 75.5448L166.262 75.8429C167.823 76.064 169.385 76.285 170.907 76.5412C171.601 76.6504 172.301 76.7824 173.001 76.9145L173.337 76.9721C174.79 77.2468 176.22 77.5278 177.656 77.8316C178.466 78.0079 179.277 78.1841 180.088 78.3604C181.582 78.6978 183.066 79.0873 184.526 79.4829C184.526 79.4829 186.195 79.9211 186.67 80.0398C188.56 80.5663 190.439 81.1449 192.324 81.7465L192.834 81.9049C183.749 77.1335 174.308 73.2442 164.699 70.2855L164.538 70.3286L164.193 70.421L163.32 70.655C162.733 70.763 162.153 70.894 161.578 71.0479L160.613 71.3065C160.051 71.5063 159.499 71.6541 158.937 71.8539L157.945 72.1937C157.268 72.4243 156.774 72.6057 156.264 72.8161L155.244 73.237C154.579 73.5135 154.069 73.7239 153.582 73.9282C153.582 73.9282 152.374 74.4734 152.311 74.5148L152.34 74.5316ZM170.56 69.551C177.475 72.4695 184.512 75.8468 191.585 79.6327C185.871 75.6794 179.873 72.3188 173.717 69.5661L173.099 69.5594C172.672 69.5264 172.244 69.4933 171.806 69.5124C171.391 69.5253 170.999 69.532 170.583 69.5449L170.56 69.551ZM215.722 229.825C217.389 226.944 219.03 223.971 220.63 220.935C212.783 218.488 204.552 215.529 196.124 212.106L195.575 213.827L198.473 216.002C199.396 216.689 203.931 220.196 203.931 220.196C204.802 220.873 207.036 222.684 207.036 222.684L209.2 224.416C210.083 225.139 210.837 225.748 211.569 226.364L214.289 228.611L215.722 229.825ZM170.396 66.9145C171.639 67.4176 172.859 67.9269 174.091 68.482L174.709 68.4887C174.905 68.4854 175.078 68.4881 175.28 68.5077C173.656 67.9593 172.037 67.4338 170.61 66.98C170.558 66.9693 170.477 66.942 170.425 66.9313L170.396 66.9145ZM187.556 124.341C183.558 121.92 179.445 119.53 175.344 117.186L173.326 120.038C177.499 122.56 181.768 124.982 186.024 127.26L187.55 124.318L187.556 124.341ZM167.254 69.8959C169.116 70.5037 170.962 71.1405 172.79 71.8064C171.175 71.108 169.588 70.4264 168.014 69.7907L167.715 69.8707C167.548 69.8909 167.404 69.9049 167.237 69.9251L167.254 69.8959ZM150.142 62.2829C155.759 63.852 161.847 65.9835 168.318 68.6271L168.571 68.5594C168.761 68.5331 168.951 68.5068 169.17 68.4973C169.723 68.4475 170.305 68.4144 170.841 68.3937C164.143 65.6387 157.191 63.5911 150.142 62.2829ZM153.689 185.726C166.206 164.148 176.92 144.849 185.516 128.306C181.202 125.994 176.897 123.533 172.695 120.994C162.03 136.247 149.509 155.145 136.467 175.683C137.509 176.264 140.416 177.92 140.416 177.92L143.09 179.442C144.051 179.996 149.691 183.305 149.691 183.305C150.629 183.865 153.712 185.72 153.712 185.72L153.689 185.726ZM122.184 62.1747C136.638 62.5318 151.01 64.8785 164.911 69.1466L165.324 69.0358C165.324 69.0358 165.865 68.9401 165.911 68.9278C155.183 64.6456 145.443 61.8448 137.694 60.7733C133.888 60.539 129.993 60.5251 126.13 60.7239C124.566 61.0446 123.247 61.5456 122.19 62.1977L122.184 62.1747ZM122.721 75.8523C123.838 75.7006 124.932 75.555 126.055 75.4263C127.679 75.237 129.292 75.0999 130.929 74.9565L131.868 74.8771C132.611 74.8009 133.337 74.7538 134.087 74.7006C135.856 74.5954 137.632 74.513 139.391 74.4598L140.388 74.4139C140.948 74.387 141.507 74.3601 142.049 74.3623C144.599 74.3186 147.138 74.3269 149.597 74.4057L149.942 74.6822L149.868 74.4069C150.435 74.132 150.939 73.8986 151.42 73.6714L152.794 73.0082C153.212 72.8223 153.613 72.6656 154.032 72.4798L155.624 71.807C155.98 71.6626 156.341 71.5411 156.703 71.4197C156.703 71.4197 158.114 70.8941 158.406 70.7911C158.751 70.6988 159.112 70.5773 159.451 70.462C159.451 70.462 160.886 70.0282 161.156 69.9314C161.478 69.8452 162.564 69.5788 162.564 69.5788C148.939 65.6057 134.871 63.4727 120.702 63.2605C119.197 65.0901 118.867 67.4412 119.666 70.4242C120.109 72.0763 120.901 73.9299 122.041 75.887L122.732 75.8003L122.721 75.8523ZM174.331 116.621C165.77 111.783 157.069 107.253 148.466 103.09C155.685 108.706 163.709 114.204 172.329 119.444L174.325 116.598L174.331 116.621ZM135.431 175.124C148.479 154.609 160.994 135.688 171.699 120.4C161.539 114.195 151.896 107.434 143.795 100.824C142.586 100.263 141.325 99.691 140.034 99.1023C130.285 103.805 120.292 109.803 110.357 116.842C105.925 119.973 101.304 123.498 96.6123 127.313L94.0367 131.028C92.7802 132.865 91.5299 134.725 90.3149 136.624L90.0732 137.009C88.9087 138.821 87.7503 140.656 86.5981 142.514L85.0986 145.007C90.3333 149.285 95.9848 153.649 101.918 157.961L102.418 158.172L109.281 161.448L116.122 164.829L123.233 168.482L129.724 171.932C130.731 172.473 133.677 174.094 133.677 174.094L135.464 175.066L135.431 175.124ZM195.043 211.658C193.138 210.89 191.243 210.069 189.349 209.249C189.465 209.316 192.864 211.799 192.864 211.799L194.588 213.084L195.043 211.658ZM164.223 283.22C164.223 283.22 165.462 281.043 165.792 280.438C166.319 279.461 166.845 278.484 167.371 277.507C167.371 277.507 169.095 274.29 169.426 273.685C169.952 272.708 170.449 271.714 170.946 270.72C170.946 270.72 172.629 267.441 172.93 266.819C173.394 265.884 173.834 264.954 174.298 264.018C174.298 264.018 175.994 260.514 176.312 259.863C176.78 258.852 177.248 257.842 177.716 256.831C177.716 256.831 179.236 253.497 179.532 252.852C179.966 251.9 180.371 250.93 180.799 249.955C180.799 249.955 182.339 246.419 182.628 245.751C183.023 244.834 183.395 243.923 183.76 242.988C183.76 242.988 185.286 239.309 185.563 238.595C185.934 237.684 186.283 236.779 186.625 235.851C186.625 235.851 188.064 232.121 188.335 231.384C188.65 230.538 188.942 229.697 189.257 228.85L190.062 226.618C190.36 225.8 190.658 224.982 190.95 224.142C191.232 223.353 192.601 219.272 192.601 219.272C192.882 218.484 193.134 217.679 193.416 216.89C193.608 216.322 194.255 214.23 194.255 214.23C190.966 211.792 187.573 209.331 184.146 206.929C167.382 199.42 150.328 190.463 133.543 180.303C119.069 203.217 104.356 227.448 91.0085 250.429L91.6846 250.838C92.7454 251.488 93.8293 252.133 94.9131 252.777L96.3112 253.583C98.0359 254.596 99.7605 255.61 101.485 256.623C101.485 256.623 106.92 259.717 108.137 260.399C108.137 260.399 114 263.623 114.839 264.087C115.759 264.579 121.591 267.689 121.591 267.689C122.819 268.319 124.024 268.955 125.252 269.585L128.365 271.186C129.704 271.86 131.036 272.511 132.368 273.163L135.207 274.566C136.428 275.174 137.667 275.752 138.905 276.33L142.069 277.843C143.366 278.455 144.68 279.037 145.977 279.649L148.895 280.982C150.325 281.632 151.772 282.252 153.225 282.896L155.736 283.994C157.323 284.675 158.932 285.351 160.535 286.003L162.284 286.74C162.755 285.925 164.268 283.208 164.268 283.208L164.223 283.22ZM132.152 86.1386C133.427 85.1082 134.692 84.1299 135.94 83.1807L136.436 82.8263C137.548 82.0119 138.666 81.2206 139.767 80.4583L140.748 79.8018C142.004 78.9734 143.237 78.1513 144.494 77.4209L144.706 77.2904C145.723 76.6737 146.729 76.1089 147.718 75.5732C147.597 75.5811 146.506 75.5537 146.506 75.5537C144.85 75.5303 143.2 75.5297 141.532 75.5583C140.771 75.5656 140.022 75.6189 139.266 75.6491L138.39 75.6872C136.804 75.7432 135.247 75.816 133.651 75.9241C132.66 75.993 131.674 76.0848 130.66 76.1598L130.372 76.1878C128.834 76.3295 127.273 76.4772 125.718 76.648C124.693 76.7751 123.668 76.9022 122.643 77.0292C124.599 80.1941 127.322 83.6454 130.734 87.2808L132.106 86.1509L132.152 86.1386ZM134.121 179.336C148.849 188.252 163.827 196.265 178.713 203.196C165.051 193.847 150.647 184.943 135.814 176.645L134.115 179.313L134.121 179.336ZM140.109 97.7295C136.586 94.6895 133.421 91.701 130.691 88.8664C130.691 88.8664 129.723 89.6667 129.405 89.9488L128.443 90.7721C128.045 91.1247 126.976 92.0997 126.976 92.0997C131.101 93.7981 135.477 95.6998 139.971 97.7664L140.109 97.7295ZM99.0931 123.796C102.613 121.032 106.164 118.384 109.683 115.892C119.311 109.082 129.04 103.204 138.627 98.4465C134.284 96.4867 130.048 94.646 126.033 92.9918C126.033 92.9918 124.925 94.0021 124.646 94.2489L124.078 94.7946C122.959 95.8569 121.829 96.9712 120.705 98.1084L119.758 99.0756C118.481 100.377 117.216 101.724 115.935 103.1L115.419 103.657C114.274 104.898 113.141 106.185 112.015 107.495L111.075 108.583C109.801 110.081 108.528 111.578 107.272 113.144L106.832 113.705C105.69 115.142 104.525 116.585 103.395 118.068L102.503 119.242C101.374 120.725 100.25 122.231 99.1329 123.76L99.0931 123.796ZM127.958 89.6971C128.595 89.1329 129.255 88.5626 129.875 88.0275C126.257 84.1766 123.41 80.5372 121.411 77.2118C120.202 77.3881 119.016 77.5582 117.814 77.7575C116.703 77.9322 115.621 78.1236 114.517 78.3212C112.946 78.619 111.382 78.9398 109.818 79.2605L109.335 79.3898C108.421 79.5611 107.506 79.7324 106.604 79.9496C104.977 80.3117 103.369 80.7427 101.731 81.1569L100.858 81.3909C100.145 81.5817 99.4039 81.7558 98.6977 81.9696L98.6518 81.982C107.193 84.5382 116.317 87.799 125.804 91.6761L127.987 89.7138L127.958 89.6971ZM112.854 62.1907C115.225 62.1212 117.734 62.1127 120.453 62.1468C120.832 61.7253 121.345 61.3419 121.986 60.9737C118.886 61.2631 115.817 61.6673 112.854 62.1907ZM67.0595 70.6986C70.6853 69.4319 74.3709 68.2968 78.0537 67.3346C86.7457 65.0302 95.8597 63.4735 105.154 62.6801C107.71 62.0196 110.108 61.5001 112.409 61.0803C114.428 60.7114 116.512 60.3991 118.637 60.1494C118.297 60.1668 117.005 60.2177 117.005 60.2177C116.492 60.2323 116.031 60.2576 115.569 60.2828C114.843 60.3298 114.261 60.3628 113.708 60.4126C106.783 61.0385 97.9702 62.3423 92.5101 63.2889C88.939 64.0244 85.3298 64.8932 81.8432 65.852C80.6253 66.1783 79.4198 66.5505 78.231 66.8936C75.8995 67.5676 72.9968 68.5913 70.4387 69.5226C69.2684 69.9346 68.213 70.3157 67.2204 70.6555C67.1744 70.6678 67.1285 70.6801 67.0825 70.6924L67.0595 70.6986ZM118.529 70.778C117.712 67.7262 117.976 65.2205 119.306 63.2902C114.666 63.2545 109.961 63.4332 105.317 63.8414C94.8709 66.4929 84.5609 70.7556 74.7195 76.4914C81.3305 77.4498 88.7142 79.0866 96.6164 81.3714C97.1326 81.1839 97.8159 80.9763 98.5052 80.7916C99.2635 80.5884 100.022 80.3852 100.78 80.182L101.676 79.9419C103.291 79.5338 104.906 79.1258 106.532 78.7637C107.648 78.514 108.763 78.2643 109.884 78.0376C111.472 77.7107 113.036 77.39 114.612 77.1152C115.74 76.9114 116.867 76.7077 118.001 76.5269L118.3 76.4468C119.135 76.346 119.964 76.2223 120.792 76.0986C119.74 74.1919 118.989 72.401 118.552 70.7718L118.529 70.778ZM79.7457 140.563C84.893 135.692 90.2734 130.954 95.7566 126.509L97.5946 123.902C98.8527 122.163 100.117 120.447 101.393 118.777L102.235 117.691C103.348 116.237 104.467 114.805 105.575 113.426L106.129 112.737C107.407 111.165 108.675 109.645 109.948 108.147L110.758 107.217C111.851 105.965 112.944 104.713 114.026 103.513L114.746 102.706C116.021 101.307 117.308 99.9532 118.585 98.652L119.34 97.8841C120.424 96.7821 121.491 95.7092 122.57 94.6822L123.428 93.8376C123.876 93.3977 124.331 92.9807 124.786 92.5637C114.806 88.4992 105.288 85.1472 96.475 82.5899C95.5283 82.9173 94.4085 83.2419 93.2949 83.5895L92.2501 83.9186C91.7446 84.0541 91.2682 84.2064 90.7689 84.3648C88.0085 85.2766 85.4611 86.1558 82.9321 87.104C80.7417 87.9368 78.5866 88.8094 76.4376 89.705L74.9136 90.3593C72.7937 91.2716 70.68 92.2069 68.5847 93.211L68.1727 93.4198C66.2092 94.364 64.2579 95.3541 62.3358 96.361L60.8885 97.1177C58.8638 98.2013 56.8682 99.3016 54.9078 100.442L54.2279 100.845C52.4391 101.89 50.6626 102.981 48.9152 104.089L47.2536 105.149C53.4128 115.451 64.6239 127.695 79.706 140.598L79.7457 140.563ZM134.806 176.103C125.693 171.044 116.451 166.241 107.238 161.823C115.464 167.612 124.149 173.278 133.125 178.743L134.783 176.109L134.806 176.103ZM89.9891 249.841C103.36 226.854 118.043 202.606 132.523 179.715C121.607 173.074 111.117 166.096 101.306 158.986C94.6077 155.862 87.8832 152.917 81.3827 150.257C79.0008 149.272 76.6664 148.373 74.355 147.467C56.8562 165.068 41.1571 185.432 28.9582 206.359C46.2099 221.017 67.2818 236.054 89.9723 249.871L89.9891 249.841ZM57.1732 75.807C61.6485 75.321 66.9594 75.472 72.9496 76.2279C81.1015 71.2645 89.8933 67.3102 98.9802 64.4572C91.9954 65.3205 85.0646 66.6611 78.3549 68.459C71.2545 70.3615 64.1286 72.812 57.1732 75.807ZM48.1728 103.156C50.0688 101.96 51.908 100.827 53.7826 99.735L54.268 99.4327C56.2682 98.2573 58.3097 97.1447 60.3574 96.0549L61.7818 95.3043C63.7896 94.2498 65.7869 93.2474 67.8362 92.2557L68.0767 92.1421C70.1949 91.1318 72.3316 90.1904 74.4683 89.2489L76.0153 88.5884C78.1873 87.6867 80.3593 86.7851 82.5727 85.9461C85.1016 84.9979 87.6888 84.0833 90.5181 83.153C91.0634 82.9823 91.6087 82.8116 92.1311 82.6471C92.1311 82.6471 94.1577 82.0303 94.4733 81.9212C86.5666 79.7113 79.3514 78.1523 73.0486 77.3326C63.0343 83.4344 53.4444 91.1195 44.7136 100.173C45.3475 101.528 46.009 102.802 46.7103 104.04L48.1835 103.104L48.1728 103.156ZM85.5955 141.898C88.0177 137.978 90.4875 134.143 93.0004 130.47L93.2819 130.05C88.9396 133.697 84.6862 137.493 80.6351 141.309C81.782 142.28 82.9581 143.268 84.1571 144.251L85.6123 141.869L85.5955 141.898ZM86.492 151.126C87.2124 151.425 87.9328 151.724 88.6593 152.045L95.5233 155.051L96.6744 155.579C92.4566 152.43 88.3704 149.221 84.4574 146.015L84.0871 146.655C83.5424 147.563 82.9977 148.472 82.4362 149.409C83.0232 149.67 86.4858 151.103 86.4858 151.103L86.492 151.126ZM44.1994 99.081C52.5 90.5364 61.6107 83.1765 71.3093 77.1838C63.9447 76.3535 57.8081 76.5222 53.0208 77.682C50.0893 79.0577 47.4396 80.3825 45.009 81.6978C44.9754 81.756 44.8728 81.8327 44.7702 81.9094C44.6507 82.0152 44.5083 82.1271 44.3951 82.2559C41.8126 85.2104 41.2232 89.3525 42.6311 94.6071C43.0123 96.0297 43.5392 97.5363 44.2285 99.0978L44.1994 99.081ZM81.3617 148.984C82.1022 147.703 82.8321 146.475 83.5451 145.275C82.2755 144.214 81.012 143.175 79.7945 142.124C78.2604 143.568 76.7616 145.052 75.2628 146.535C77.2723 147.325 79.3047 148.109 81.3556 148.961L81.3617 148.984ZM74.0612 146.095C75.6564 144.512 77.2517 142.928 78.8822 141.385C63.7649 128.441 52.5124 116.135 46.3118 105.77C44.8677 106.723 43.4006 107.681 41.9688 108.68L41.1021 109.306C39.4651 110.457 37.8634 111.649 36.2616 112.841L35.0535 113.755C33.3783 115.04 31.7154 116.371 30.1046 117.712C26.9794 122.042 23.9907 126.605 21.2918 131.239C32.4356 132.754 45.536 136.056 60.2284 141.071C61.2323 141.417 62.2301 141.74 63.2401 142.108C64.2502 142.477 65.2771 142.817 66.3163 143.202C68.3655 143.957 70.4378 144.705 72.5514 145.516L72.777 145.898L72.8764 145.625L74.0842 146.089L74.0612 146.095ZM28.0565 205.567C40.3856 184.483 55.5704 164.773 73.1702 146.998L72.2122 146.64C69.8778 145.74 67.591 144.927 65.3272 144.107L62.8197 143.205C61.1598 142.617 59.5122 142.074 57.8875 141.526C56.1065 140.946 54.3547 140.382 52.632 139.835L50.6488 139.236C37.0619 135.129 25.0653 132.638 14.9779 131.849L14.3027 132.546C12.3233 134.626 10.4251 136.733 8.67543 138.751L8.03558 139.488C6.17879 141.658 4.27927 144.036 2.23444 146.699C1.86709 147.166 0.71618 148.754 0.71618 148.754C-0.671973 150.65 -2.05397 152.57 -3.35474 154.517L-3.66998 154.995C-4.05869 155.567 -4.45354 156.115 -4.81313 156.703C-6.61427 159.449 -8.1827 161.959 -9.56278 164.346C-9.34951 164.682 -8.17574 166.581 -8.17574 166.581C-7.95018 166.963 -7.70164 167.339 -7.45309 167.715C-7.12785 168.194 -6.77349 168.689 -6.4421 169.191L-5.63822 170.352C-5.40198 170.683 -5.15959 171.036 -4.91719 171.389C-4.51525 171.97 -4.06736 172.538 -3.61946 173.107L-2.74665 174.25C-2.51655 174.558 -2.28645 174.865 -2.05635 175.172C-1.53176 175.843 -0.955068 176.525 -0.401347 177.213L1.09414 179.025C1.77052 179.803 2.48216 180.621 3.18766 181.416L4.53429 182.948C5.4453 183.959 6.4084 184.979 7.37151 186L8.23495 186.925C9.29774 188.042 10.4126 189.169 11.5567 190.314L12.1962 190.954C13.4399 192.195 14.7065 193.429 16.0253 194.675L16.3949 195.043C19.9296 198.4 23.8597 201.945 28.1669 205.612L28.0565 205.567ZM41.5175 94.9547C40.2448 90.2049 40.5371 86.2407 42.3901 83.1373C31.0661 89.5901 20.655 97.5198 11.4019 106.738L10.7666 107.4C8.50846 109.726 6.03156 112.431 3.75986 114.983C-1.48296 121.061 -6.24425 127.648 -10.4751 134.562C-9.84722 134.147 -9.20704 133.779 -8.5316 133.451L-8.31411 133.343C-2.82932 130.742 4.82963 129.821 14.5753 130.53C15.1709 129.903 15.7955 129.293 16.3971 128.689L17.5607 127.517C19.1789 125.927 20.8094 124.384 22.486 122.828L23.6174 121.811C25.124 120.448 26.6429 119.131 28.1909 117.831L29.3745 116.826C33.7011 110.821 38.4141 105.156 43.3375 100.001C42.5699 98.2388 41.9479 96.5609 41.5236 94.9776L41.5175 94.9547ZM34.2606 112.909L35.5086 111.96C37.1669 110.704 38.8315 109.471 40.5312 108.278L41.1928 107.806C42.6874 106.766 44.2049 105.72 45.7348 104.72C45.0811 103.567 44.4442 102.385 43.864 101.138C40.1776 105.028 36.5437 109.297 33.0417 113.875C33.446 113.546 33.8563 113.239 34.2836 112.903L34.2606 112.909ZM20.0428 131.082C22.0518 127.641 24.2737 124.169 26.6228 120.711C25.9001 121.323 25.1835 121.957 24.4899 122.586L23.4212 123.561C21.7784 125.058 20.1708 126.596 18.5924 128.15L17.5988 129.13C17.19 129.534 16.1521 130.624 16.1521 130.624C17.4178 130.752 18.7357 130.891 20.0597 131.053L20.0428 131.082ZM-10.0162 162.746C-8.6911 160.521 -7.26345 158.221 -5.75456 155.947C-5.31537 155.289 -4.18291 153.632 -4.18291 153.632C-2.90965 151.766 -1.58428 149.911 -0.252771 148.079L0.266053 147.35C0.610419 146.888 0.931803 146.433 1.28232 145.995C3.30418 143.338 5.18687 140.989 7.00385 138.855L7.61003 138.176C9.31373 136.17 11.1385 134.156 13.1516 132.018L13.4348 131.696C7.47401 131.326 2.31974 131.576 -1.90701 132.438C-3.14332 132.695 -4.26927 132.997 -5.35379 133.361C-5.91596 133.561 -6.47813 133.761 -6.98819 133.972C-7.40634 134.157 -7.62997 134.242 -7.84746 134.349L-8.19667 134.517C-8.88894 134.874 -9.42037 135.189 -9.92267 135.52L-10.2198 135.698C-10.3683 135.787 -10.5169 135.876 -10.6593 135.988C-11.6163 136.736 -12.2532 137.301 -12.7798 137.909C-13.3799 138.611 -13.7624 139.205 -14.1664 139.904C-14.4188 140.34 -14.5182 140.613 -14.6175 140.885L-14.9173 141.605C-15.0564 141.913 -15.1956 142.221 -15.2765 142.562L-15.6073 142.798L-15.3176 142.868C-15.4795 143.551 -15.6061 144.274 -15.6789 145.105L-15.7213 145.682C-15.7589 146.553 -15.7382 147.457 -15.6424 148.366L-15.6085 148.676C-15.4697 149.746 -15.3111 150.613 -15.1005 151.492L-14.8607 152.386C-14.6316 153.333 -14.3381 154.337 -13.9465 155.339L-13.6394 156.117C-13.3015 157.01 -12.9054 157.937 -12.4572 158.875C-12.2838 159.246 -12.1103 159.618 -11.9139 159.983C-11.4304 160.96 -10.8886 161.971 -10.3178 162.999L-10.2288 163.147L-9.98701 162.762L-10.0162 162.746Z" fill="#3863FF"/>
</g>
<path d="M32.5077 1H1V412.569H32.5077" stroke="white"/>
<path d="M353.492 1H385V412.569H353.492" stroke="white"/>
</svg>
